<?xml version="1.0" standalone="no"?>
<svg
  width="600"
  height="600"
  viewBox="0 0 600 600"
  xmlns="http://www.w3.org/2000/svg"
>
  <g transform="translate(300,300)">
    <path d="M127.4,-140C173.9,-112.9,226.3,-81,241.1,-36.6C255.9,7.7,233.2,64.6,197.1,101.2C160.9,137.7,111.4,153.9,63.9,167.9C16.3,182,-29.3,193.9,-79.9,188.8C-130.5,183.7,-186,161.6,-212,120.5C-237.9,79.5,-234.2,19.4,-213.8,-27.6C-193.5,-74.6,-156.5,-108.5,-118.1,-137.1C-79.7,-165.7,-39.9,-188.8,0.3,-189.2C40.5,-189.6,81,-167.2,127.4,-140Z" fill="#78d0d3" />
  </g>
</svg>
  