<svg width="1921" height="259" viewBox="0 0 1921 259" fill="none" xmlns="http://www.w3.org/2000/svg">
<line x1="0.0137297" y1="159.5" x2="182.098" y2="160.5" stroke="#e01313" stroke-width="5"/>
<line x1="179.808" y1="161.965" x2="210.843" y2="93.688" stroke="#e01313" stroke-width="5"/>
<line x1="210.553" y1="94.6085" x2="236.553" y2="258.609" stroke="#e01313" stroke-width="5"/>
<path d="M236.084 257.495L283.853 156.193" stroke="#e01313" stroke-width="5"/>
<line x1="282.084" y1="156.5" x2="494.084" y2="156.5" stroke="#e01313" stroke-width="5"/>
<line x1="493.271" y1="157.091" x2="531.424" y2="124.774" stroke="#e01313" stroke-width="5"/>
<line x1="532.463" y1="122.23" x2="556.473" y2="196.443" stroke="#e01313" stroke-width="5"/>
<line x1="555.666" y1="194.367" x2="590.077" y2="62.793" stroke="#e01313" stroke-width="5"/>
<line x1="588.839" y1="63.0362" x2="633.214" y2="158.199" stroke="#e01313" stroke-width="5"/>
<line x1="632.084" y1="156.5" x2="907.084" y2="156.5" stroke="#e01313" stroke-width="5"/>
<line x1="905.878" y1="157.824" x2="925.643" y2="120.765" stroke="#e01313" stroke-width="5"/>
<line x1="924.019" y1="121.417" x2="942.019" y2="143.417" stroke="#e01313" stroke-width="5"/>
<line x1="939.743" y1="144.122" x2="969.743" y2="64.1222" stroke="#e01313" stroke-width="5"/>
<path d="M970.426 62.126L1027.09 213.894" stroke="#e01313" stroke-width="5"/>
<line x1="1024.79" y1="213.015" x2="1051.57" y2="150.513" stroke="#e01313" stroke-width="5"/>
<line x1="1052.12" y1="152.5" x2="1305.09" y2="156.516" stroke="#e01313" stroke-width="5"/>
<line x1="1304.66" y1="158.409" x2="1342.73" y2="1.97662" stroke="#e01313" stroke-width="5"/>
<line x1="1344.57" y1="0.716134" x2="1372.73" y2="247.112" stroke="#e01313" stroke-width="5"/>
<line x1="1371.92" y1="249.434" x2="1400.07" y2="206.811" stroke="#e01313" stroke-width="5"/>
<line x1="1400.07" y1="205.481" x2="1426.07" y2="239.481" stroke="#e01313" stroke-width="5"/>
<line x1="1424.6" y1="239.724" x2="1434.76" y2="148.287" stroke="#e01313" stroke-width="5"/>
<line x1="1436.09" y1="150.5" x2="1920.09" y2="152.5" stroke="#e01313" stroke-width="5"/>
</svg>
