<svg width="1920" height="311" viewBox="0 0 1920 311" fill="none" xmlns="http://www.w3.org/2000/svg">
<path id="Vector" fill-rule="evenodd" clip-rule="evenodd" d="M0 141.197L40 112.896C80 84.5954 79.5 18.9804 159.5 2C239.5 -14.9803 374 95.5 480 33.6543C611 -42.7776 654.33 113.653 720 67.615C878.5 -43.5 880 73.2752 960 73.2752C1040 73.2752 1120 22.3341 1200 50.6347C1280 78.9353 1360 186.477 1440 192.138C1520 197.798 1600 152.517 1680 118.556C1760 84.5954 1840 61.9549 1880 50.6347L1920 39.3145V311H1880C1840 311 1760 311 1680 311C1600 311 1520 311 1440 311C1360 311 1280 311 1200 311C1120 311 1040 311 960 311C880 311 800 311 720 311C640 311 560 311 480 311C400 311 320 311 240 311C160 311 80 311 40 311H0V141.197Z" fill="url(#paint0_radial)"/>
<defs>
<radialGradient id="paint0_radial" cx="0" cy="0" r="1" gradientUnits="userSpaceOnUse" gradientTransform="translate(960 109.833) rotate(98.05) scale(132.107 827.153)">
<stop stop-color="#E01313"/>
<stop offset="1" stop-color="#6F0707"/>
</radialGradient>
</defs>
</svg>
